<svg xmlns="http://www.w3.org/2000/svg" xmlns:xlink="http://www.w3.org/1999/xlink" width="300" zoomAndPan="magnify" viewBox="0 0 224.87999 89.999999" height="120" preserveAspectRatio="xMidYMid meet" version="1.0"><metadata/><defs><g/><clipPath id="1e976b8483"><path d="M 0 0.0234375 L 224.761719 0.0234375 L 224.761719 88 L 0 88 Z M 0 0.0234375 " clip-rule="nonzero"/></clipPath><clipPath id="a7f5eb3954"><path d="M 0 19 L 26 19 L 26 67 L 0 67 Z M 0 19 " clip-rule="nonzero"/></clipPath><clipPath id="9848db3956"><rect x="0" width="225" y="0" height="88"/></clipPath></defs><g clip-path="url(#1e976b8483)"><g transform="matrix(1, 0, 0, 1, 0, 0.000000000000011848)"><g clip-path="url(#9848db3956)"><g clip-path="url(#a7f5eb3954)"><g fill="#000000" fill-opacity="1"><g transform="translate(0, 66.289736)"><g><path d="M 6.15625 0.453125 C 4.039062 0.453125 2.472656 -0.03125 1.453125 -1 C 0.441406 -1.976562 -0.179688 -3.15625 -0.421875 -4.53125 C -0.660156 -5.914062 -0.671875 -7.234375 -0.453125 -8.484375 L -0.0625 -8.484375 C -0.363281 -6.804688 -0.148438 -5.328125 0.578125 -4.046875 C 1.316406 -2.773438 2.421875 -2.140625 3.890625 -2.140625 C 6.742188 -2.140625 8.515625 -4.234375 9.203125 -8.421875 L 15.234375 -42.1875 C 15.398438 -43.1875 15.351562 -44.128906 15.09375 -45.015625 C 14.84375 -45.898438 14.347656 -46.492188 13.609375 -46.796875 L 13.671875 -47.1875 L 25.140625 -47.1875 L 25.078125 -46.796875 C 24.253906 -46.410156 23.539062 -45.796875 22.9375 -44.953125 C 22.332031 -44.109375 21.945312 -43.1875 21.78125 -42.1875 L 16.015625 -9.59375 C 15.398438 -6.175781 14.296875 -3.644531 12.703125 -2 C 11.109375 -0.363281 8.925781 0.453125 6.15625 0.453125 Z M 6.15625 0.453125 "/></g></g></g></g><g fill="#000000" fill-opacity="1"><g transform="translate(23.006121, 66.289736)"><g><path d="M 15.625 0.453125 C 11.519531 0.453125 8.242188 -0.765625 5.796875 -3.203125 C 3.359375 -5.648438 2.140625 -8.945312 2.140625 -13.09375 C 2.140625 -15.851562 2.644531 -18.519531 3.65625 -21.09375 C 4.675781 -23.664062 6.082031 -25.976562 7.875 -28.03125 C 9.664062 -30.082031 11.75 -31.703125 14.125 -32.890625 C 16.5 -34.078125 19.070312 -34.671875 21.84375 -34.671875 C 24.5625 -34.671875 26.925781 -34.097656 28.9375 -32.953125 C 30.945312 -31.804688 32.503906 -30.21875 33.609375 -28.1875 C 34.710938 -26.15625 35.265625 -23.757812 35.265625 -21 C 35.265625 -18.226562 34.765625 -15.566406 33.765625 -13.015625 C 32.773438 -10.472656 31.378906 -8.1875 29.578125 -6.15625 C 27.785156 -4.125 25.703125 -2.515625 23.328125 -1.328125 C 20.953125 -0.140625 18.382812 0.453125 15.625 0.453125 Z M 15.75 -0.328125 C 17.300781 -0.328125 18.742188 -0.84375 20.078125 -1.875 C 21.421875 -2.914062 22.632812 -4.289062 23.71875 -6 C 24.800781 -7.707031 25.71875 -9.597656 26.46875 -11.671875 C 27.226562 -13.742188 27.8125 -15.847656 28.21875 -17.984375 C 28.632812 -20.117188 28.84375 -22.117188 28.84375 -23.984375 C 28.84375 -27.046875 28.191406 -29.453125 26.890625 -31.203125 C 25.597656 -32.953125 23.847656 -33.828125 21.640625 -33.828125 C 20.085938 -33.828125 18.640625 -33.304688 17.296875 -32.265625 C 15.960938 -31.234375 14.753906 -29.851562 13.671875 -28.125 C 12.597656 -26.394531 11.671875 -24.492188 10.890625 -22.421875 C 10.109375 -20.347656 9.507812 -18.238281 9.09375 -16.09375 C 8.6875 -13.957031 8.484375 -11.960938 8.484375 -10.109375 C 8.484375 -6.992188 9.15625 -4.582031 10.5 -2.875 C 11.84375 -1.175781 13.59375 -0.328125 15.75 -0.328125 Z M 15.75 -0.328125 "/></g></g></g><g fill="#000000" fill-opacity="1"><g transform="translate(60.334373, 66.289736)"><g><path d="M 28.515625 -33.578125 L 32.796875 -33.578125 L 32.59375 -31.953125 C 32.207031 -29.796875 31.34375 -27.421875 30 -24.828125 C 28.664062 -22.234375 27.113281 -19.550781 25.34375 -16.78125 C 23.570312 -14.019531 21.820312 -11.28125 20.09375 -8.5625 C 19.445312 -7.5625 18.664062 -6.390625 17.75 -5.046875 C 16.84375 -3.710938 15.96875 -2.414062 15.125 -1.15625 C 14.289062 0.09375 13.59375 1.125 13.03125 1.9375 L 11.984375 3.5 C 10.648438 5.445312 9.210938 7.207031 7.671875 8.78125 C 6.140625 10.351562 4.597656 11.601562 3.046875 12.53125 C 1.492188 13.46875 -0.015625 13.9375 -1.484375 13.9375 C -2.347656 13.9375 -3.171875 13.785156 -3.953125 13.484375 C -4.734375 13.179688 -5.488281 12.679688 -6.21875 11.984375 L -4.078125 7.84375 L -3.765625 7.84375 C -3.367188 8.445312 -2.75 9.019531 -1.90625 9.5625 C -1.0625 10.101562 -0.1875 10.375 0.71875 10.375 C 2.570312 10.375 4.296875 9.753906 5.890625 8.515625 C 7.492188 7.285156 9.03125 5.742188 10.5 3.890625 L 11.40625 2.65625 L 4.921875 -27.609375 C 4.660156 -29.035156 4.328125 -30.160156 3.921875 -30.984375 C 3.515625 -31.804688 2.878906 -32.539062 2.015625 -33.1875 L 2.078125 -33.578125 L 14.453125 -33.578125 L 14.390625 -33.1875 C 13.003906 -32.625 12.070312 -31.898438 11.59375 -31.015625 C 11.125 -30.128906 11.039062 -28.929688 11.34375 -27.421875 L 15.9375 -3.890625 C 17.0625 -5.578125 18.25 -7.4375 19.5 -9.46875 C 20.757812 -11.5 21.972656 -13.601562 23.140625 -15.78125 C 24.304688 -17.96875 25.332031 -20.140625 26.21875 -22.296875 C 27.101562 -24.453125 27.738281 -26.460938 28.125 -28.328125 C 28.34375 -29.453125 28.484375 -30.429688 28.546875 -31.265625 C 28.609375 -32.109375 28.597656 -32.878906 28.515625 -33.578125 Z M 28.515625 -33.578125 "/></g></g></g><g fill="#000000" fill-opacity="1"><g transform="translate(91.894889, 66.289736)"><g><path d="M 26.515625 -34.609375 C 29.191406 -34.609375 31.265625 -33.710938 32.734375 -31.921875 C 34.203125 -30.128906 34.9375 -27.566406 34.9375 -24.234375 C 34.9375 -21.085938 34.414062 -18.03125 33.375 -15.0625 C 32.34375 -12.101562 30.882812 -9.457031 29 -7.125 C 27.125 -4.789062 24.921875 -2.941406 22.390625 -1.578125 C 19.859375 -0.222656 17.101562 0.453125 14.125 0.453125 C 12.269531 0.453125 10.5 0.128906 8.8125 -0.515625 C 7.125 -1.160156 5.738281 -2.1875 4.65625 -3.59375 C 3.582031 -5 3.046875 -6.804688 3.046875 -9.015625 C 3.046875 -9.566406 3.175781 -10.6875 3.4375 -12.375 C 3.695312 -14.0625 4.03125 -16.070312 4.4375 -18.40625 C 4.851562 -20.738281 5.285156 -23.15625 5.734375 -25.65625 C 6.191406 -28.164062 6.625 -30.566406 7.03125 -32.859375 C 7.4375 -35.148438 7.78125 -37.082031 8.0625 -38.65625 C 8.34375 -40.238281 8.507812 -41.222656 8.5625 -41.609375 C 8.6875 -42.734375 8.585938 -43.671875 8.265625 -44.421875 C 7.941406 -45.179688 7.457031 -45.90625 6.8125 -46.59375 L 6.8125 -46.921875 C 8.53125 -47.140625 10.132812 -47.492188 11.625 -47.984375 C 13.125 -48.484375 14.609375 -49.164062 16.078125 -50.03125 L 16.390625 -50.03125 L 11.21875 -20.9375 C 12.507812 -23.570312 13.929688 -25.914062 15.484375 -27.96875 C 17.046875 -30.019531 18.753906 -31.640625 20.609375 -32.828125 C 22.460938 -34.015625 24.429688 -34.609375 26.515625 -34.609375 Z M 14.328125 -0.328125 C 15.960938 -0.328125 17.492188 -0.84375 18.921875 -1.875 C 20.347656 -2.914062 21.632812 -4.289062 22.78125 -6 C 23.925781 -7.707031 24.910156 -9.597656 25.734375 -11.671875 C 26.554688 -13.742188 27.179688 -15.859375 27.609375 -18.015625 C 28.046875 -20.179688 28.265625 -22.191406 28.265625 -24.046875 C 28.265625 -26.421875 27.84375 -28.222656 27 -29.453125 C 26.15625 -30.679688 25 -31.296875 23.53125 -31.296875 C 21.84375 -31.296875 20.226562 -30.722656 18.6875 -29.578125 C 17.15625 -28.441406 15.71875 -26.941406 14.375 -25.078125 C 13.039062 -23.222656 11.859375 -21.171875 10.828125 -18.921875 C 10.265625 -15.679688 9.832031 -13.128906 9.53125 -11.265625 C 9.226562 -9.410156 9.078125 -7.925781 9.078125 -6.8125 C 9.078125 -2.488281 10.828125 -0.328125 14.328125 -0.328125 Z M 14.328125 -0.328125 "/></g></g></g><g fill="#000000" fill-opacity="1"><g transform="translate(128.575079, 66.289736)"><g><path d="M 18.921875 -2.984375 C 20.734375 -2.984375 22.578125 -3.347656 24.453125 -4.078125 C 26.335938 -4.816406 28.101562 -6.113281 29.75 -7.96875 L 29.9375 -7.71875 C 28.34375 -5.332031 26.34375 -3.375 23.9375 -1.84375 C 21.539062 -0.3125 18.789062 0.453125 15.6875 0.453125 C 11.707031 0.453125 8.460938 -0.722656 5.953125 -3.078125 C 3.453125 -5.429688 2.203125 -8.769531 2.203125 -13.09375 C 2.203125 -15.988281 2.695312 -18.734375 3.6875 -21.328125 C 4.6875 -23.921875 6.09375 -26.21875 7.90625 -28.21875 C 9.71875 -30.226562 11.820312 -31.804688 14.21875 -32.953125 C 16.625 -34.097656 19.226562 -34.671875 22.03125 -34.671875 C 25.226562 -34.671875 27.660156 -33.945312 29.328125 -32.5 C 30.992188 -31.050781 31.828125 -29.207031 31.828125 -26.96875 C 31.828125 -24.757812 31.164062 -22.863281 29.84375 -21.28125 C 28.53125 -19.707031 26.78125 -18.378906 24.59375 -17.296875 C 22.414062 -16.222656 20.007812 -15.335938 17.375 -14.640625 C 14.738281 -13.953125 12.078125 -13.367188 9.390625 -12.890625 C 9.648438 -10.003906 10.578125 -7.628906 12.171875 -5.765625 C 13.773438 -3.910156 16.023438 -2.984375 18.921875 -2.984375 Z M 21.78125 -33.890625 C 20.007812 -33.890625 18.351562 -33.296875 16.8125 -32.109375 C 15.28125 -30.921875 13.953125 -29.375 12.828125 -27.46875 C 11.703125 -25.570312 10.828125 -23.507812 10.203125 -21.28125 C 9.578125 -19.0625 9.265625 -16.894531 9.265625 -14.78125 L 9.265625 -13.421875 C 12.597656 -14.148438 15.582031 -15.160156 18.21875 -16.453125 C 20.851562 -17.753906 22.925781 -19.382812 24.4375 -21.34375 C 25.945312 -23.3125 26.703125 -25.679688 26.703125 -28.453125 C 26.703125 -32.078125 25.0625 -33.890625 21.78125 -33.890625 Z M 21.78125 -33.890625 "/></g></g></g><g fill="#000000" fill-opacity="1"><g transform="translate(161.561326, 66.289736)"><g><path d="M 24.171875 -34.671875 C 25.421875 -34.671875 26.445312 -34.460938 27.25 -34.046875 C 28.050781 -33.640625 28.710938 -33.132812 29.234375 -32.53125 L 26.375 -27.9375 L 26.1875 -27.9375 C 25.664062 -29.0625 25.046875 -29.847656 24.328125 -30.296875 C 23.617188 -30.753906 22.8125 -30.984375 21.90625 -30.984375 C 20.21875 -30.984375 18.722656 -30.410156 17.421875 -29.265625 C 16.128906 -28.117188 15.03125 -26.632812 14.125 -24.8125 C 13.21875 -23 12.460938 -21.082031 11.859375 -19.0625 L 9.390625 -4.984375 C 9.222656 -3.953125 9.234375 -3.015625 9.421875 -2.171875 C 9.617188 -1.328125 10.066406 -0.734375 10.765625 -0.390625 L 10.6875 0 L 0.0625 0 L 0.125 -0.390625 C 0.945312 -0.734375 1.609375 -1.328125 2.109375 -2.171875 C 2.609375 -3.015625 2.941406 -3.953125 3.109375 -4.984375 L 6.609375 -24.890625 C 6.867188 -26.359375 6.828125 -27.476562 6.484375 -28.25 C 6.140625 -29.03125 5.617188 -29.769531 4.921875 -30.46875 L 4.984375 -30.71875 C 8.273438 -31.195312 11.238281 -32.234375 13.875 -33.828125 L 14.1875 -33.828125 L 11.859375 -20.484375 C 12.421875 -22.078125 13.078125 -23.707031 13.828125 -25.375 C 14.585938 -27.039062 15.453125 -28.570312 16.421875 -29.96875 C 17.398438 -31.375 18.523438 -32.507812 19.796875 -33.375 C 21.078125 -34.238281 22.535156 -34.671875 24.171875 -34.671875 Z M 24.171875 -34.671875 "/></g></g></g><g fill="#000000" fill-opacity="1"><g transform="translate(188.1966, 66.289736)"><g><path d="M 35.328125 -33.703125 L 29.296875 -0.84375 C 28.691406 2.613281 27.585938 5.390625 25.984375 7.484375 C 24.390625 9.578125 22.46875 11.097656 20.21875 12.046875 C 17.96875 13.003906 15.523438 13.484375 12.890625 13.484375 C 10.773438 13.484375 8.882812 13.050781 7.21875 12.1875 C 5.5625 11.320312 4.179688 10.195312 3.078125 8.8125 C 1.972656 7.425781 1.1875 5.957031 0.71875 4.40625 L 0.96875 4.140625 L 1.03125 4.140625 C 1.632812 5.742188 2.789062 7.148438 4.5 8.359375 C 6.207031 9.566406 8.507812 10.171875 11.40625 10.171875 C 14.082031 10.171875 16.40625 9.457031 18.375 8.03125 C 20.34375 6.601562 21.671875 4.140625 22.359375 0.640625 L 24.765625 -11.34375 C 22.816406 -7.882812 20.664062 -5.050781 18.3125 -2.84375 C 15.957031 -0.644531 13.414062 0.453125 10.6875 0.453125 C 7.96875 0.453125 5.828125 -0.460938 4.265625 -2.296875 C 2.710938 -4.140625 1.9375 -6.722656 1.9375 -10.046875 C 1.9375 -13.410156 2.46875 -16.582031 3.53125 -19.5625 C 4.59375 -22.550781 6.050781 -25.175781 7.90625 -27.4375 C 9.757812 -29.707031 11.90625 -31.476562 14.34375 -32.75 C 16.789062 -34.03125 19.398438 -34.671875 22.171875 -34.671875 C 23.640625 -34.671875 25.0625 -34.398438 26.4375 -33.859375 C 27.820312 -33.316406 28.96875 -32.421875 29.875 -31.171875 L 35.125 -33.703125 Z M 13.484375 -2.921875 C 15.472656 -2.921875 17.484375 -3.859375 19.515625 -5.734375 C 21.546875 -7.617188 23.421875 -10.132812 25.140625 -13.28125 L 28.1875 -28.96875 C 28.019531 -30.519531 27.445312 -31.695312 26.46875 -32.5 C 25.5 -33.300781 24.257812 -33.703125 22.75 -33.703125 C 20.894531 -33.703125 19.132812 -33.019531 17.46875 -31.65625 C 15.800781 -30.300781 14.304688 -28.488281 12.984375 -26.21875 C 11.671875 -23.945312 10.632812 -21.445312 9.875 -18.71875 C 9.125 -16 8.75 -13.28125 8.75 -10.5625 C 8.75 -7.925781 9.132812 -5.992188 9.90625 -4.765625 C 10.6875 -3.535156 11.878906 -2.921875 13.484375 -2.921875 Z M 13.484375 -2.921875 "/></g></g></g></g></g></g></svg>